<?xml version="1.0" encoding="UTF-8" standalone="no"?>
<!-- Created with Inkscape (http://www.inkscape.org/) -->

<svg
   xmlns:ns1="http://www.iki.fi/pav/software/textext/"
   xmlns:dc="http://purl.org/dc/elements/1.1/"
   xmlns:cc="http://creativecommons.org/ns#"
   xmlns:rdf="http://www.w3.org/1999/02/22-rdf-syntax-ns#"
   xmlns:svg="http://www.w3.org/2000/svg"
   xmlns="http://www.w3.org/2000/svg"
   xmlns:sodipodi="http://sodipodi.sourceforge.net/DTD/sodipodi-0.dtd"
   xmlns:inkscape="http://www.inkscape.org/namespaces/inkscape"
   width="66.911041mm"
   height="57.546825mm"
   viewBox="0 0 237.08637 203.90607"
   id="svg2"
   version="1.1"
   inkscape:version="0.91 r13725"
   sodipodi:docname="domain.svg">
  <sodipodi:namedview
     id="base"
     pagecolor="#ffffff"
     bordercolor="#666666"
     borderopacity="1.0"
     inkscape:pageopacity="0.0"
     inkscape:pageshadow="2"
     inkscape:zoom="1.4"
     inkscape:cx="201.79439"
     inkscape:cy="98.291372"
     inkscape:document-units="px"
     inkscape:current-layer="layer1"
     showgrid="true"
     inkscape:window-width="1855"
     inkscape:window-height="1056"
     inkscape:window-x="65"
     inkscape:window-y="24"
     inkscape:window-maximized="1"
     fit-margin-top="0"
     fit-margin-left="0"
     fit-margin-right="0"
     fit-margin-bottom="0">
    <inkscape:grid
       type="xygrid"
       id="grid4136"
       originx="-190.39034"
       originy="-497.89948" />
  </sodipodi:namedview>
  <defs
     id="defs4" />
  <metadata
     id="metadata7">
    <rdf:RDF>
      <cc:Work
         rdf:about="">
        <dc:format>image/svg+xml</dc:format>
        <dc:type
           rdf:resource="http://purl.org/dc/dcmitype/StillImage" />
        <dc:title></dc:title>
      </cc:Work>
    </rdf:RDF>
  </metadata>
  <g
     inkscape:label="Layer 1"
     inkscape:groupmode="layer"
     id="layer1"
     transform="translate(-190.39033,-350.55666)">
    <path
       style="fill:none;fill-rule:evenodd;stroke:#000000;stroke-width:2.5;stroke-linecap:butt;stroke-linejoin:miter;stroke-miterlimit:4;stroke-dasharray:none;stroke-opacity:1"
       d="m 200,432.3622 c 13.12273,-36.0248 56.53878,-75.3957 100,-80 43.46122,-4.6043 103.37526,19.86433 120,60 16.62474,40.13567 -1.26439,92.08095 -40,120 -38.73561,27.91905 -126.23325,27.68211 -160,0 -33.76675,-27.68211 -33.12273,-63.9752 -20,-100 z"
       id="path4138"
       inkscape:connector-curvature="0"
       sodipodi:nodetypes="zzzzzz" />
    <path
       style="fill:none;fill-rule:evenodd;stroke:#000000;stroke-width:2.5;stroke-linecap:butt;stroke-linejoin:miter;stroke-miterlimit:4;stroke-dasharray:none;stroke-opacity:1"
       d="m 200,432.3622 c 0,0 50.31632,-5.02819 75,15 24.68368,20.02819 45,105 45,105"
       id="path4140"
       inkscape:connector-curvature="0"
       sodipodi:nodetypes="czc" />
    <path
       style="fill:none;fill-rule:evenodd;stroke:#000000;stroke-width:2.5;stroke-linecap:butt;stroke-linejoin:miter;stroke-miterlimit:4;stroke-dasharray:none;stroke-opacity:1"
       d="m 275,447.3622 c 0,0 60.29558,-6.44633 80,-20 19.70442,-13.55367 35,-50 35,-50"
       id="path4142"
       inkscape:connector-curvature="0"
       sodipodi:nodetypes="czc" />
    <g
       transform="matrix(1.25,0,0,1.25,188.25261,194.27028)"
       ns1:version="0.8.1"
       ns1:texconverter="pdflatex"
       ns1:pdfconverter="pdf2svg"
       ns1:text="$\\Omega_0$"
       ns1:preamble="/home/sebastianstark/.config/inkscape/extensions/default_packages.tex"
       ns1:scale="1.0"
       ns1:alignment="middle center"
       inkscapeversion="0.91"
       ns1:jacobian_sqrt="1.25"
       id="g4172">
      <g
         id="surface1">
        <g
           style="fill:#000000;fill-opacity:1"
           id="g4175">
          <path
             inkscape:connector-curvature="0"
             style="stroke:none;stroke-width:0"
             d="m 6.75,-1.609375 -0.25,0 c -0.046875,0.25 -0.09375,0.484375 -0.1875,0.71875 -0.046875,0.15625 -0.078125,0.25 -0.65625,0.25 l -0.796875,0 C 5,-1.203125 5.296875,-1.6875 5.75,-2.34375 c 0.46875,-0.703125 0.875,-1.390625 0.875,-2.1875 0,-1.375 -1.34375,-2.5 -3.03125,-2.5 -1.703125,0 -3.03125,1.140625 -3.03125,2.5 0,0.796875 0.40625,1.484375 0.875,2.1875 0.4375,0.65625 0.75,1.140625 0.890625,1.703125 l -0.796875,0 C 0.953125,-0.640625 0.921875,-0.734375 0.875,-0.875 0.78125,-1.109375 0.734375,-1.359375 0.6875,-1.609375 l -0.25,0 L 0.765625,0 2.359375,0 c 0.21875,0 0.25,0 0.25,-0.203125 0,-0.703125 -0.3125,-1.578125 -0.53125,-2.21875 -0.21875,-0.578125 -0.5,-1.359375 -0.5,-2.109375 0,-1.59375 1.109375,-2.28125 2.015625,-2.28125 0.953125,0 2.015625,0.71875 2.015625,2.28125 0,0.75 -0.28125,1.5 -0.5625,2.3125 -0.15625,0.421875 -0.46875,1.328125 -0.46875,2.015625 C 4.578125,0 4.609375,0 4.828125,0 l 1.59375,0 z m 0,0"
             transform="translate(148.712,134.765)"
             id="path4177" />
        </g>
        <g
           style="fill:#000000;fill-opacity:1"
           id="g4179">
          <path
             inkscape:connector-curvature="0"
             style="stroke:none;stroke-width:0"
             d="M 3.59375,-2.21875 C 3.59375,-2.984375 3.5,-3.546875 3.1875,-4.03125 2.96875,-4.34375 2.53125,-4.625 1.984375,-4.625 c -1.625,0 -1.625,1.90625 -1.625,2.40625 0,0.5 0,2.359375 1.625,2.359375 1.609375,0 1.609375,-1.859375 1.609375,-2.359375 z M 1.984375,-0.0625 c -0.328125,0 -0.75,-0.1875 -0.890625,-0.75 C 1,-1.21875 1,-1.796875 1,-2.3125 1,-2.828125 1,-3.359375 1.09375,-3.734375 1.25,-4.28125 1.6875,-4.4375 1.984375,-4.4375 c 0.375,0 0.734375,0.234375 0.859375,0.640625 0.109375,0.375 0.125,0.875 0.125,1.484375 0,0.515625 0,1.03125 -0.09375,1.46875 -0.140625,0.640625 -0.609375,0.78125 -0.890625,0.78125 z m 0,0"
             transform="translate(155.908,136.259)"
             id="path4181" />
        </g>
      </g>
    </g>
    <g
       id="g4241"
       ns1:jacobian_sqrt="1.25"
       inkscapeversion="0.91"
       ns1:alignment="middle center"
       ns1:scale="1.0"
       ns1:preamble="/home/sebastianstark/.config/inkscape/extensions/default_packages.tex"
       ns1:text="$\\Omega_1$"
       ns1:pdfconverter="pdf2svg"
       ns1:texconverter="pdflatex"
       ns1:version="0.8.1"
       transform="matrix(1.25,0,0,1.25,88.922207,239.66275)">
      <g
         id="g4243">
        <g
           id="g4245"
           style="fill:#000000;fill-opacity:1">
          <path
             id="path4247"
             transform="translate(148.712,134.765)"
             d="m 6.75,-1.609375 -0.25,0 c -0.046875,0.25 -0.09375,0.484375 -0.1875,0.71875 -0.046875,0.15625 -0.078125,0.25 -0.65625,0.25 l -0.796875,0 C 5,-1.203125 5.296875,-1.6875 5.75,-2.34375 c 0.46875,-0.703125 0.875,-1.390625 0.875,-2.1875 0,-1.375 -1.34375,-2.5 -3.03125,-2.5 -1.703125,0 -3.03125,1.140625 -3.03125,2.5 0,0.796875 0.40625,1.484375 0.875,2.1875 0.4375,0.65625 0.75,1.140625 0.890625,1.703125 l -0.796875,0 C 0.953125,-0.640625 0.921875,-0.734375 0.875,-0.875 0.78125,-1.109375 0.734375,-1.359375 0.6875,-1.609375 l -0.25,0 L 0.765625,0 2.359375,0 c 0.21875,0 0.25,0 0.25,-0.203125 0,-0.703125 -0.3125,-1.578125 -0.53125,-2.21875 -0.21875,-0.578125 -0.5,-1.359375 -0.5,-2.109375 0,-1.59375 1.109375,-2.28125 2.015625,-2.28125 0.953125,0 2.015625,0.71875 2.015625,2.28125 0,0.75 -0.28125,1.5 -0.5625,2.3125 -0.15625,0.421875 -0.46875,1.328125 -0.46875,2.015625 C 4.578125,0 4.609375,0 4.828125,0 l 1.59375,0 z m 0,0"
             style="stroke:none;stroke-width:0"
             inkscape:connector-curvature="0" />
        </g>
        <g
           id="g4249"
           style="fill:#000000;fill-opacity:1">
          <path
             id="path4251"
             transform="translate(155.908,136.259)"
             d="m 2.328125,-4.4375 c 0,-0.1875 0,-0.1875 -0.203125,-0.1875 -0.453125,0.4375 -1.078125,0.4375 -1.359375,0.4375 l 0,0.25 c 0.15625,0 0.625,0 1,-0.1875 l 0,3.546875 c 0,0.234375 0,0.328125 -0.6875,0.328125 l -0.265625,0 0,0.25 c 0.125,0 0.984375,-0.03125 1.234375,-0.03125 0.21875,0 1.09375,0.03125 1.25,0.03125 l 0,-0.25 -0.265625,0 c -0.703125,0 -0.703125,-0.09375 -0.703125,-0.328125 z m 0,0"
             style="stroke:none;stroke-width:0"
             inkscape:connector-curvature="0" />
        </g>
      </g>
    </g>
    <g
       transform="matrix(1.25,0,0,1.25,136.66365,313.6526)"
       ns1:version="0.8.1"
       ns1:texconverter="pdflatex"
       ns1:pdfconverter="pdf2svg"
       ns1:text="$\\Omega_2$"
       ns1:preamble="/home/sebastianstark/.config/inkscape/extensions/default_packages.tex"
       ns1:scale="1.0"
       ns1:alignment="middle center"
       inkscapeversion="0.91"
       ns1:jacobian_sqrt="1.25"
       id="g4323">
      <g
         id="g4325">
        <g
           style="fill:#000000;fill-opacity:1"
           id="g4327">
          <path
             style="stroke:none;stroke-width:0"
             d="m 6.75,-1.609375 -0.25,0 c -0.046875,0.25 -0.09375,0.484375 -0.1875,0.71875 -0.046875,0.15625 -0.078125,0.25 -0.65625,0.25 l -0.796875,0 C 5,-1.203125 5.296875,-1.6875 5.75,-2.34375 c 0.46875,-0.703125 0.875,-1.390625 0.875,-2.1875 0,-1.375 -1.34375,-2.5 -3.03125,-2.5 -1.703125,0 -3.03125,1.140625 -3.03125,2.5 0,0.796875 0.40625,1.484375 0.875,2.1875 0.4375,0.65625 0.75,1.140625 0.890625,1.703125 l -0.796875,0 C 0.953125,-0.640625 0.921875,-0.734375 0.875,-0.875 0.78125,-1.109375 0.734375,-1.359375 0.6875,-1.609375 l -0.25,0 L 0.765625,0 2.359375,0 c 0.21875,0 0.25,0 0.25,-0.203125 0,-0.703125 -0.3125,-1.578125 -0.53125,-2.21875 -0.21875,-0.578125 -0.5,-1.359375 -0.5,-2.109375 0,-1.59375 1.109375,-2.28125 2.015625,-2.28125 0.953125,0 2.015625,0.71875 2.015625,2.28125 0,0.75 -0.28125,1.5 -0.5625,2.3125 -0.15625,0.421875 -0.46875,1.328125 -0.46875,2.015625 C 4.578125,0 4.609375,0 4.828125,0 l 1.59375,0 z m 0,0"
             transform="translate(148.712,134.765)"
             id="path4329"
             inkscape:connector-curvature="0" />
        </g>
        <g
           style="fill:#000000;fill-opacity:1"
           id="g4331">
          <path
             style="stroke:none;stroke-width:0"
             d="m 3.515625,-1.265625 -0.234375,0 c -0.015625,0.15625 -0.09375,0.5625 -0.1875,0.625 -0.046875,0.046875 -0.578125,0.046875 -0.6875,0.046875 l -1.28125,0 c 0.734375,-0.640625 0.984375,-0.84375 1.390625,-1.171875 0.515625,-0.40625 1,-0.84375 1,-1.5 0,-0.84375 -0.734375,-1.359375 -1.625,-1.359375 -0.859375,0 -1.453125,0.609375 -1.453125,1.25 0,0.34375 0.296875,0.390625 0.375,0.390625 0.15625,0 0.359375,-0.125 0.359375,-0.375 0,-0.125 -0.046875,-0.375 -0.40625,-0.375 C 0.984375,-4.21875 1.453125,-4.375 1.78125,-4.375 c 0.703125,0 1.0625,0.546875 1.0625,1.109375 0,0.609375 -0.4375,1.078125 -0.65625,1.328125 L 0.515625,-0.265625 C 0.4375,-0.203125 0.4375,-0.1875 0.4375,0 l 2.875,0 z m 0,0"
             transform="translate(155.908,136.259)"
             id="path4333"
             inkscape:connector-curvature="0" />
        </g>
      </g>
    </g>
    <g
       id="g4417"
       ns1:jacobian_sqrt="1.25"
       inkscapeversion="0.91"
       ns1:alignment="middle center"
       ns1:scale="1.0"
       ns1:preamble="/home/sebastianstark/.config/inkscape/extensions/default_packages.tex"
       ns1:text="$\\Omega_3$"
       ns1:pdfconverter="pdf2svg"
       ns1:texconverter="pdflatex"
       ns1:version="0.8.1"
       transform="matrix(1.25,0,0,1.25,56.424093,325.53425)">
      <g
         id="g4419">
        <g
           id="g4421"
           style="fill:#000000;fill-opacity:1">
          <path
             id="path4423"
             transform="translate(148.712,134.765)"
             d="m 6.75,-1.609375 -0.25,0 c -0.046875,0.25 -0.09375,0.484375 -0.1875,0.71875 -0.046875,0.15625 -0.078125,0.25 -0.65625,0.25 l -0.796875,0 C 5,-1.203125 5.296875,-1.6875 5.75,-2.34375 c 0.46875,-0.703125 0.875,-1.390625 0.875,-2.1875 0,-1.375 -1.34375,-2.5 -3.03125,-2.5 -1.703125,0 -3.03125,1.140625 -3.03125,2.5 0,0.796875 0.40625,1.484375 0.875,2.1875 0.4375,0.65625 0.75,1.140625 0.890625,1.703125 l -0.796875,0 C 0.953125,-0.640625 0.921875,-0.734375 0.875,-0.875 0.78125,-1.109375 0.734375,-1.359375 0.6875,-1.609375 l -0.25,0 L 0.765625,0 2.359375,0 c 0.21875,0 0.25,0 0.25,-0.203125 0,-0.703125 -0.3125,-1.578125 -0.53125,-2.21875 -0.21875,-0.578125 -0.5,-1.359375 -0.5,-2.109375 0,-1.59375 1.109375,-2.28125 2.015625,-2.28125 0.953125,0 2.015625,0.71875 2.015625,2.28125 0,0.75 -0.28125,1.5 -0.5625,2.3125 -0.15625,0.421875 -0.46875,1.328125 -0.46875,2.015625 C 4.578125,0 4.609375,0 4.828125,0 l 1.59375,0 z m 0,0"
             style="stroke:none;stroke-width:0"
             inkscape:connector-curvature="0" />
        </g>
        <g
           id="g4425"
           style="fill:#000000;fill-opacity:1">
          <path
             id="path4427"
             transform="translate(155.908,136.259)"
             d="m 1.90625,-2.328125 c 0.546875,0 0.9375,0.375 0.9375,1.125 0,0.859375 -0.515625,1.125 -0.90625,1.125 -0.28125,0 -0.90625,-0.078125 -1.1875,-0.5 0.328125,0 0.40625,-0.234375 0.40625,-0.390625 0,-0.21875 -0.171875,-0.375 -0.390625,-0.375 -0.1875,0 -0.390625,0.125 -0.390625,0.40625 0,0.65625 0.71875,1.078125 1.5625,1.078125 0.96875,0 1.640625,-0.65625 1.640625,-1.34375 0,-0.546875 -0.4375,-1.09375 -1.203125,-1.25 0.71875,-0.265625 0.984375,-0.78125 0.984375,-1.21875 0,-0.546875 -0.625,-0.953125 -1.40625,-0.953125 -0.765625,0 -1.359375,0.375 -1.359375,0.9375 0,0.234375 0.15625,0.359375 0.359375,0.359375 0.21875,0 0.359375,-0.15625 0.359375,-0.34375 0,-0.203125 -0.140625,-0.359375 -0.359375,-0.375 0.25,-0.296875 0.71875,-0.375 0.984375,-0.375 0.3125,0 0.75,0.15625 0.75,0.75 0,0.296875 -0.09375,0.625 -0.28125,0.828125 -0.21875,0.265625 -0.421875,0.28125 -0.765625,0.3125 -0.171875,0.015625 -0.1875,0.015625 -0.21875,0.015625 -0.015625,0 -0.078125,0.015625 -0.078125,0.09375 0,0.09375 0.0625,0.09375 0.1875,0.09375 z m 0,0"
             style="stroke:none;stroke-width:0"
             inkscape:connector-curvature="0" />
        </g>
      </g>
    </g>
    <path
       style="fill:none;fill-rule:evenodd;stroke:#000000;stroke-width:2.5;stroke-linecap:butt;stroke-linejoin:miter;stroke-miterlimit:4;stroke-dasharray:none;stroke-opacity:1"
       d="m 365,507.36218 c 0,0 -1.6561,-32.62136 5,-45 6.6561,-12.37864 30,-25 30,-25"
       id="path4460"
       inkscape:connector-curvature="0"
       sodipodi:nodetypes="czc" />
    <g
       transform="matrix(1.25,0,0,1.25,158.08518,302.18212)"
       ns1:version="0.8.1"
       ns1:texconverter="pdflatex"
       ns1:pdfconverter="pdf2svg"
       ns1:text="$\\Sigma_1$"
       ns1:preamble="/home/sebastianstark/.config/inkscape/extensions/default_packages.tex"
       ns1:scale="1.0"
       ns1:alignment="middle center"
       inkscapeversion="0.91"
       ns1:jacobian_sqrt="1.25"
       id="g4526">
      <g
         id="g4528">
        <g
           style="fill:#000000;fill-opacity:1"
           id="g4530">
          <path
             inkscape:connector-curvature="0"
             style="stroke:none;stroke-width:0"
             d="m 3.703125,-3.25 c 0.09375,-0.09375 0.09375,-0.140625 0.09375,-0.15625 0,-0.046875 -0.03125,-0.109375 -0.0625,-0.140625 L 1.6875,-6.5 l 2.296875,0 c 1.6875,0 2.1875,0.359375 2.390625,1.9375 l 0.25,0 -0.28125,-2.25 -5.53125,0 c -0.234375,0 -0.25,0 -0.25,0.234375 l 2.484375,3.609375 -2.375,2.703125 C 0.5625,-0.15625 0.5625,-0.140625 0.5625,-0.109375 0.5625,0 0.671875,0 0.8125,0 l 5.53125,0 0.28125,-2.359375 -0.25,0 c -0.171875,1.671875 -0.859375,1.9375 -2.421875,1.9375 l -2.75,0 z m 0,0"
             transform="translate(148.712,134.765)"
             id="path4532" />
        </g>
        <g
           style="fill:#000000;fill-opacity:1"
           id="g4534">
          <path
             inkscape:connector-curvature="0"
             style="stroke:none;stroke-width:0"
             d="m 2.328125,-4.4375 c 0,-0.1875 0,-0.1875 -0.203125,-0.1875 -0.453125,0.4375 -1.078125,0.4375 -1.359375,0.4375 l 0,0.25 c 0.15625,0 0.625,0 1,-0.1875 l 0,3.546875 c 0,0.234375 0,0.328125 -0.6875,0.328125 l -0.265625,0 0,0.25 c 0.125,0 0.984375,-0.03125 1.234375,-0.03125 0.21875,0 1.09375,0.03125 1.25,0.03125 l 0,-0.25 -0.265625,0 c -0.703125,0 -0.703125,-0.09375 -0.703125,-0.328125 z m 0,0"
             transform="translate(155.908,136.259)"
             id="path4536" />
        </g>
      </g>
    </g>
    <g
       id="g4646"
       ns1:jacobian_sqrt="1.25"
       inkscapeversion="0.91"
       ns1:alignment="middle center"
       ns1:scale="1.0"
       ns1:preamble="/home/sebastianstark/.config/inkscape/extensions/default_packages.tex"
       ns1:text="$\\Sigma_2$"
       ns1:pdfconverter="pdf2svg"
       ns1:texconverter="pdflatex"
       ns1:version="0.8.1"
       transform="matrix(1.25,0,0,1.25,145.484,250.93974)">
      <g
         id="g4648">
        <g
           id="g4650"
           style="fill:#000000;fill-opacity:1">
          <path
             id="path4652"
             transform="translate(148.712,134.765)"
             d="m 3.703125,-3.25 c 0.09375,-0.09375 0.09375,-0.140625 0.09375,-0.15625 0,-0.046875 -0.03125,-0.109375 -0.0625,-0.140625 L 1.6875,-6.5 l 2.296875,0 c 1.6875,0 2.1875,0.359375 2.390625,1.9375 l 0.25,0 -0.28125,-2.25 -5.53125,0 c -0.234375,0 -0.25,0 -0.25,0.234375 l 2.484375,3.609375 -2.375,2.703125 C 0.5625,-0.15625 0.5625,-0.140625 0.5625,-0.109375 0.5625,0 0.671875,0 0.8125,0 l 5.53125,0 0.28125,-2.359375 -0.25,0 c -0.171875,1.671875 -0.859375,1.9375 -2.421875,1.9375 l -2.75,0 z m 0,0"
             style="stroke:none;stroke-width:0"
             inkscape:connector-curvature="0" />
        </g>
        <g
           id="g4654"
           style="fill:#000000;fill-opacity:1">
          <path
             id="path4656"
             transform="translate(155.908,136.259)"
             d="m 3.515625,-1.265625 -0.234375,0 c -0.015625,0.15625 -0.09375,0.5625 -0.1875,0.625 -0.046875,0.046875 -0.578125,0.046875 -0.6875,0.046875 l -1.28125,0 c 0.734375,-0.640625 0.984375,-0.84375 1.390625,-1.171875 0.515625,-0.40625 1,-0.84375 1,-1.5 0,-0.84375 -0.734375,-1.359375 -1.625,-1.359375 -0.859375,0 -1.453125,0.609375 -1.453125,1.25 0,0.34375 0.296875,0.390625 0.375,0.390625 0.15625,0 0.359375,-0.125 0.359375,-0.375 0,-0.125 -0.046875,-0.375 -0.40625,-0.375 C 0.984375,-4.21875 1.453125,-4.375 1.78125,-4.375 c 0.703125,0 1.0625,0.546875 1.0625,1.109375 0,0.609375 -0.4375,1.078125 -0.65625,1.328125 L 0.515625,-0.265625 C 0.4375,-0.203125 0.4375,-0.1875 0.4375,0 l 2.875,0 z m 0,0"
             style="stroke:none;stroke-width:0"
             inkscape:connector-curvature="0" />
        </g>
      </g>
    </g>
    <path
       style="fill:none;fill-rule:evenodd;stroke:#000000;stroke-width:1.25;stroke-linecap:butt;stroke-linejoin:miter;stroke-miterlimit:4;stroke-dasharray:none;stroke-opacity:1"
       d="m 337,420.36218 8,12"
       id="path4702"
       inkscape:connector-curvature="0"
       sodipodi:nodetypes="cc" />
    <path
       style="fill:none;fill-rule:evenodd;stroke:#000000;stroke-width:1.25;stroke-linecap:butt;stroke-linejoin:miter;stroke-miterlimit:4;stroke-dasharray:none;stroke-opacity:1"
       d="m 365,477.36218 -7,-3"
       id="path4704"
       inkscape:connector-curvature="0"
       sodipodi:nodetypes="cc" />
  </g>
</svg>
